<?xml version="1.0" encoding="utf-8"?>
<!-- Generator: Adobe Illustrator 27.2.0, SVG Export Plug-In . SVG Version: 6.00 Build 0)  -->
<svg version="1.1" id="Ebene_1" xmlns="http://www.w3.org/2000/svg" xmlns:xlink="http://www.w3.org/1999/xlink" x="0px" y="0px"
	 viewBox="0 0 175.1 183.2" style="enable-background:new 0 0 175.1 183.2;" xml:space="preserve">
<style type="text/css">
	.st0{fill:#014574;}
</style>
<path class="st0" d="M163.6,83.7c-0.2-1.4-1.1-2.6-2.5-3.1l-10.7-3.8c-6.1-2.1-9.3-8.8-7.2-14.9c0-0.5,0.1-0.9,0.3-1.2l4.9-10.2
	c0.6-1.3,0.5-2.9-0.4-4c-4-5.2-8.7-9.9-13.9-13.9c-1.1-0.9-2.7-1.1-4-0.4l-10.3,4.9c-5.8,2.8-12.8,0.3-15.6-5.5
	c-0.2-0.4-0.3-0.7-0.5-1.1l-3.8-10.7c-0.5-1.3-1.7-2.3-3.1-2.5c-6.5-0.8-13.1-0.8-19.7,0c-1.4,0.2-2.6,1.1-3.1,2.5l-3.8,10.7
	c-2.2,6.1-8.9,9.3-15,7.1c-0.4-0.1-0.7-0.3-1.1-0.5l-10.2-4.9c-1.3-0.6-2.9-0.5-4,0.4c-5.2,4-9.9,8.7-13.9,13.9
	c-0.9,1.1-1.1,2.7-0.4,4l4.9,10.2c2.8,5.8,0.3,12.8-5.5,15.6c-0.4,0.2-0.7,0.3-1.1,0.5l-10.7,3.8c-1.3,0.5-2.3,1.7-2.5,3.1
	c-0.8,6.5-0.8,13.1,0,19.7c0.2,1.4,1.1,2.6,2.5,3.1l10.8,3.8c6.1,2.2,9.3,8.9,7.1,14.9c-0.1,0.4-0.3,0.8-0.5,1.1l-4.9,10.3
	c-0.6,1.3-0.4,2.8,0.4,3.9c4,5.2,8.7,9.9,13.9,13.9c1.1,0.9,2.7,1.1,4,0.4l10.2-4.9c5.9-2.8,12.8-0.3,15.6,5.6
	c0.2,0.4,0.3,0.7,0.5,1.1l3.8,10.7c0.5,1.3,1.7,2.3,3.1,2.5c6.5,0.8,13.1,0.8,19.7,0c1.4-0.2,2.6-1.1,3.1-2.5l3.8-10.7
	c2.2-6.1,8.9-9.3,15-7.1c0.4,0.1,0.7,0.3,1.1,0.5l10.3,4.9c1.3,0.6,2.8,0.4,4-0.4c5.2-4,9.9-8.7,13.9-13.9c0.9-1.1,1.1-2.7,0.4-3.9
	l-4.9-10.3c-2.8-5.8-0.3-12.8,5.6-15.6c0.4-0.2,0.7-0.3,1.1-0.5l10.8-3.8c1.3-0.5,2.3-1.7,2.5-3.1C164.5,96.9,164.5,90.3,163.6,83.7
	z M118.1,119.8l-10.3-17.3H75.1l5.7-9.8h21.1L86.6,67l-31.3,52.9H41.6l39.6-66c1.4-2.4,3.2-3.9,5.9-3.9c2.7,0,4.4,1.5,5.8,3.9
	l39.7,66L118.1,119.8z"/>
</svg>
