<svg xmlns="http://www.w3.org/2000/svg" id="uuid-884b1425-0420-4ac0-acfb-a47229d9a08c" viewBox="0 0 293.48 293.48"><g id="uuid-20715d1f-c505-4b0e-9f00-6fd9996c2368"><path d="m254.44,84.19l9.29-19.54c1.17-2.47.83-5.37-.84-7.53-7.67-9.93-16.59-18.85-26.52-26.52-2.16-1.67-5.07-2.01-7.53-.84l-19.54,9.29c-11.95,5.68-26.2-.22-30.63-12.69l-7.26-20.42c-.91-2.57-3.21-4.39-5.91-4.73-6.14-.79-12.39-1.2-18.75-1.2s-12.61.42-18.75,1.2c-2.71.35-5,2.16-5.91,4.73l-7.26,20.42c-4.43,12.47-18.68,18.37-30.63,12.69l-19.54-9.29c-2.47-1.17-5.37-.83-7.53.84-9.93,7.67-18.85,16.59-26.52,26.52-1.67,2.16-2.01,5.07-.84,7.53l9.29,19.54c5.68,11.95-.22,26.2-12.69,30.63l-20.42,7.26c-2.57.91-4.39,3.21-4.73,5.91-.79,6.14-1.2,12.39-1.2,18.75s.42,12.61,1.2,18.75c.35,2.71,2.16,5,4.73,5.91l20.42,7.26c12.47,4.43,18.37,18.68,12.69,30.63l-9.29,19.54c-1.17,2.47-.83,5.37.84,7.53,7.67,9.93,16.59,18.85,26.52,26.52,2.16,1.67,5.07,2.01,7.53.84l19.54-9.29c11.95-5.68,26.2.22,30.63,12.69l7.26,20.42c.91,2.57,3.21,4.39,5.91,4.73,6.14.79,12.39,1.2,18.75,1.2s12.61-.42,18.75-1.2c2.71-.35,5-2.16,5.91-4.73l7.26-20.42c4.43-12.47,18.68-18.37,30.63-12.69l19.54,9.29c2.47,1.17,5.37.83,7.53-.84,9.93-7.67,18.85-16.59,26.52-26.52,1.67-2.16,2.01-5.07.84-7.53l-9.29-19.54c-5.68-11.95.22-26.2,12.69-30.63l20.42-7.26c2.57-.91,4.39-3.21,4.73-5.91.79-6.14,1.2-12.39,1.2-18.75s-.42-12.61-1.2-18.75c-.35-2.71-2.16-5-4.73-5.91l-20.42-7.26c-12.47-4.43-18.37-18.68-12.69-30.63Z" fill="#4383cc"></path><path d="m205.71,206.57l-19.69-33.05h-62.13l10.84-18.6h40.28l-29.26-49.13-59.6,100.79h-26.19l75.5-125.71c2.71-4.52,6.14-7.41,11.2-7.41s8.31,2.89,11.02,7.41l75.68,125.71h-27.63Z" fill="#fff"></path></g></svg>